<?xml version="1.0" encoding="UTF-8" standalone="no"?>
<!-- Generator: Adobe Illustrator 15.0.2, SVG Export Plug-In . SVG Version: 6.00 Build 0)  -->

<svg
   version="1.1"
   id="Calque_1"
   x="0px"
   y="0px"
   width="100.06046"
   height="100"
   viewBox="0 0 100.06046 100"
   enable-background="new 0 0 128 128"
   xml:space="preserve"
   sodipodi:docname="EP_321.svg"
   inkscape:version="1.2.2 (732a01da63, 2022-12-09)"
   xmlns:inkscape="http://www.inkscape.org/namespaces/inkscape"
   xmlns:sodipodi="http://sodipodi.sourceforge.net/DTD/sodipodi-0.dtd"
   xmlns="http://www.w3.org/2000/svg"
   xmlns:svg="http://www.w3.org/2000/svg"><defs
   id="defs15" /><sodipodi:namedview
   id="namedview13"
   pagecolor="#ffffff"
   bordercolor="#000000"
   borderopacity="0.25"
   inkscape:showpageshadow="2"
   inkscape:pageopacity="0.0"
   inkscape:pagecheckerboard="0"
   inkscape:deskcolor="#d1d1d1"
   showgrid="false"
   inkscape:zoom="7.9999996"
   inkscape:cx="58.625003"
   inkscape:cy="50.875002"
   inkscape:window-width="1920"
   inkscape:window-height="1017"
   inkscape:window-x="1912"
   inkscape:window-y="-8"
   inkscape:window-maximized="1"
   inkscape:current-layer="Calque_1" />

     <path
   display="none"
   fill="#ffffff"
   stroke="#12809c"
   stroke-width="3.685"
   stroke-miterlimit="10"
   d="m 19.401227,-21.657003 c -1.1,0.1 -27.6,0.4 -27.6,27.6 v 61.1 c 0,1.1 0.3,27.6 27.6,27.6 h 61.1 c 1.1,0 27.600003,-0.3 27.600003,-27.601 v -61.099 c -0.1,-1.2 -0.4,-27.5 -27.600003,-27.5 z"
   id="path4" />



<path
   style="fill:none;stroke:#ff00ff;stroke-width:1.97879;stroke-opacity:1"
   id="path342"
   transform="rotate(-90)"
   d="M -98.010605,50.140446 A 48.010605,48.010605 0 0 1 -50,2.1298409 48.010605,48.010605 0 0 1 -1.9893951,50.140446 H -50 Z"
   sodipodi:type="arc"
   sodipodi:arc-type="slice"
   sodipodi:start="3.1415927"
   sodipodi:end="0"
   sodipodi:ry="48.010605"
   sodipodi:rx="48.010605"
   sodipodi:cy="50.140446"
   sodipodi:cx="-50" /><path
   style="fill:#ff00ff;stroke:#ff00ff;stroke-width:1.95891;stroke-opacity:1"
   id="path1106"
   sodipodi:type="arc"
   sodipodi:cx="50.000004"
   sodipodi:cy="-50.979454"
   sodipodi:rx="48.020546"
   sodipodi:ry="47.041088"
   sodipodi:start="3.1415927"
   sodipodi:end="0"
   sodipodi:arc-type="slice"
   d="M 1.9794579,-50.979454 A 48.020546,47.041088 0 0 1 50.000004,-98.020542 48.020546,47.041088 0 0 1 98.02055,-50.979454 H 50.000004 Z"
   transform="rotate(90)" /></svg>
