<?xml version="1.0" encoding="UTF-8" standalone="no"?>
<!-- Generator: Adobe Illustrator 15.0.2, SVG Export Plug-In . SVG Version: 6.00 Build 0)  -->

<svg
   version="1.1"
   id="Calque_1"
   x="0px"
   y="0px"
   width="100.06046"
   height="100"
   viewBox="0 0 100.06046 100"
   enable-background="new 0 0 128 128"
   xml:space="preserve"
   sodipodi:docname="BP_0122.svg"
   inkscape:version="1.2.2 (732a01da63, 2022-12-09)"
   xmlns:inkscape="http://www.inkscape.org/namespaces/inkscape"
   xmlns:sodipodi="http://sodipodi.sourceforge.net/DTD/sodipodi-0.dtd"
   xmlns="http://www.w3.org/2000/svg"
   xmlns:svg="http://www.w3.org/2000/svg"><defs
   id="defs15" /><sodipodi:namedview
   id="namedview13"
   pagecolor="#ffffff"
   bordercolor="#000000"
   borderopacity="0.25"
   inkscape:showpageshadow="2"
   inkscape:pageopacity="0.0"
   inkscape:pagecheckerboard="0"
   inkscape:deskcolor="#d1d1d1"
   showgrid="false"
   inkscape:zoom="4"
   inkscape:cx="-24.125"
   inkscape:cy="61.25"
   inkscape:window-width="1920"
   inkscape:window-height="1017"
   inkscape:window-x="1912"
   inkscape:window-y="-8"
   inkscape:window-maximized="1"
   inkscape:current-layer="Calque_1" />

     <path
   display="none"
   fill="#ffffff"
   stroke="#12809c"
   stroke-width="3.685"
   stroke-miterlimit="10"
   d="m 19.401227,-21.657003 c -1.1,0.1 -27.6,0.4 -27.6,27.6 v 61.1 c 0,1.1 0.3,27.6 27.6,27.6 h 61.1 c 1.1,0 27.600003,-0.3 27.600003,-27.601 v -61.099 c -0.1,-1.2 -0.4,-27.5 -27.600003,-27.5 z"
   id="path4" />



<text
   xml:space="preserve"
   style="font-size:31.3124px;line-height:0.4;font-family:arial;-inkscape-font-specification:arial;fill:#0001fa;fill-opacity:1;stroke:none;stroke-width:1.95703;stroke-dasharray:none;stroke-opacity:1"
   x="8.9553318"
   y="25.029648"
   id="text1998"><tspan
     sodipodi:role="line"
     id="tspan1996"
     x="8.9553318"
     y="25.029648"
     style="fill:#0001fa;fill-opacity:1;stroke-width:1.95703">ep</tspan></text><path
   id="rect5571"
   style="fill:none;stroke:#0001fa;stroke-width:2;stroke-dasharray:none"
   d="M 2,59.793689 V 40.448723 M 2,30.776239 2.0302822,2.0151508 30.406322,1.9999999 m 38.892032,0.015151 28.676522,4.46e-4 -0.0048,28.7606421 m 0.02645,29.01745 V 40.448723 M 97.976366,69.708139 97.999236,98 H 68.770835 m -9.400948,0 H 40.085893 m -9.63471,0 H 2 V 69.466172 M 59.369883,2.0006015 H 40.085889"
   sodipodi:nodetypes="cccccccccccccccccccc" /></svg>
