<?xml version="1.0" encoding="UTF-8" standalone="no"?>
<!-- Generator: Adobe Illustrator 15.0.2, SVG Export Plug-In . SVG Version: 6.00 Build 0)  -->

<svg
   version="1.1"
   id="Calque_1"
   x="0px"
   y="0px"
   width="100.06046"
   height="100"
   viewBox="0 0 100.06046 100"
   enable-background="new 0 0 128 128"
   xml:space="preserve"
   sodipodi:docname="BP_0094.svg"
   inkscape:version="1.2.2 (732a01da63, 2022-12-09)"
   xmlns:inkscape="http://www.inkscape.org/namespaces/inkscape"
   xmlns:sodipodi="http://sodipodi.sourceforge.net/DTD/sodipodi-0.dtd"
   xmlns="http://www.w3.org/2000/svg"
   xmlns:svg="http://www.w3.org/2000/svg"><defs
   id="defs15" /><sodipodi:namedview
   id="namedview13"
   pagecolor="#ffffff"
   bordercolor="#000000"
   borderopacity="0.25"
   inkscape:showpageshadow="2"
   inkscape:pageopacity="0.0"
   inkscape:pagecheckerboard="0"
   inkscape:deskcolor="#d1d1d1"
   showgrid="false"
   inkscape:zoom="4"
   inkscape:cx="-5.125"
   inkscape:cy="73.5"
   inkscape:window-width="1920"
   inkscape:window-height="1017"
   inkscape:window-x="3832"
   inkscape:window-y="-8"
   inkscape:window-maximized="1"
   inkscape:current-layer="Calque_1" />

     <path
   display="none"
   fill="#ffffff"
   stroke="#12809c"
   stroke-width="3.685"
   stroke-miterlimit="10"
   d="m 19.401227,-21.657003 c -1.1,0.1 -27.6,0.4 -27.6,27.6 v 61.1 c 0,1.1 0.3,27.6 27.6,27.6 h 61.1 c 1.1,0 27.600003,-0.3 27.600003,-27.601 v -61.099 c -0.1,-1.2 -0.4,-27.5 -27.600003,-27.5 z"
   id="path4" />



<rect
   style="fill:none;stroke:#0000ff;stroke-width:1.94197;stroke-dasharray:none;stroke-opacity:1"
   id="rect358"
   width="98.058029"
   height="98.058029"
   x="0.97098505"
   y="0.97098541" /><path
   style="fill:#0000ff;fill-opacity:1;stroke:#0000ff;stroke-width:1.89318;stroke-dasharray:none;stroke-opacity:1"
   d="M 0.94659001,97.037597 V 0.94659001 H 99.960187 L 7.089261,10.840795 Z"
   id="path1753" /><text
   xml:space="preserve"
   style="font-size:34.3731px;line-height:0.4;font-family:arial;-inkscape-font-specification:arial;fill:#0000ff;fill-opacity:1;stroke:none;stroke-width:2.14832;stroke-dasharray:none;stroke-opacity:1"
   x="10.392115"
   y="32.698078"
   id="text1998"><tspan
     sodipodi:role="line"
     id="tspan1996"
     x="10.392115"
     y="32.698078"
     style="fill:#0000ff;stroke:none;stroke-width:2.14832">ep</tspan></text><path
   style="fill:none;stroke:#0001fa;stroke-width:1;stroke-dasharray:none"
   d="M 26.585154,95.97114 C 43.640046,89.405549 37.559295,77.512126 47.933196,68.569197 58.307096,59.626266 68.368109,62.415339 77.129284,53.722326 85.89046,45.029313 78.632347,33.550767 93.84447,25.822166"
   id="path9508"
   sodipodi:nodetypes="czzc" /><path
   style="fill:none;stroke:#0001fa;stroke-width:1;stroke-dasharray:none"
   d="M 49.08877,96.5582 C 60.551712,92.14533 56.464715,84.151514 63.437225,78.140785 70.409735,72.13006 77.171947,74.004652 83.060512,68.161901 88.949076,62.31915 84.070751,54.604183 94.295129,49.409634"
   id="path9508-6"
   sodipodi:nodetypes="czzc" /><path
   style="fill:none;stroke:#0001fa;stroke-width:1;stroke-dasharray:none"
   d="m 70.407509,96.73292 c 6.078667,-2.3401 3.911379,-6.57913 7.608823,-9.766561 3.697442,-3.187415 7.283366,-2.193336 10.406004,-5.291685 3.122642,-3.098345 0.535723,-7.189504 5.957594,-9.944115"
   id="path9508-6-3"
   sodipodi:nodetypes="czzc" /></svg>
