<?xml version="1.0" encoding="UTF-8" standalone="no"?>
<!-- Generator: Adobe Illustrator 15.0.2, SVG Export Plug-In . SVG Version: 6.00 Build 0)  -->

<svg
   version="1.1"
   id="Calque_1"
   x="0px"
   y="0px"
   width="100.06046"
   height="100"
   viewBox="0 0 100.06046 100"
   enable-background="new 0 0 128 128"
   xml:space="preserve"
   sodipodi:docname="IP_0646.svg"
   inkscape:version="1.2.2 (732a01da63, 2022-12-09)"
   xmlns:inkscape="http://www.inkscape.org/namespaces/inkscape"
   xmlns:sodipodi="http://sodipodi.sourceforge.net/DTD/sodipodi-0.dtd"
   xmlns="http://www.w3.org/2000/svg"
   xmlns:svg="http://www.w3.org/2000/svg"><defs
   id="defs15" /><sodipodi:namedview
   id="namedview13"
   pagecolor="#ffffff"
   bordercolor="#000000"
   borderopacity="0.25"
   inkscape:showpageshadow="2"
   inkscape:pageopacity="0.0"
   inkscape:pagecheckerboard="0"
   inkscape:deskcolor="#d1d1d1"
   showgrid="false"
   inkscape:zoom="4.1786929"
   inkscape:cx="38.528794"
   inkscape:cy="48.579784"
   inkscape:window-width="1920"
   inkscape:window-height="1017"
   inkscape:window-x="1912"
   inkscape:window-y="-8"
   inkscape:window-maximized="1"
   inkscape:current-layer="Calque_1" />

     <path
   display="none"
   fill="#ffffff"
   stroke="#12809c"
   stroke-width="3.685"
   stroke-miterlimit="10"
   d="m 19.401227,-21.657003 c -1.1,0.1 -27.6,0.4 -27.6,27.6 v 61.1 c 0,1.1 0.3,27.6 27.6,27.6 h 61.1 c 1.1,0 27.600003,-0.3 27.600003,-27.601 v -61.099 c -0.1,-1.2 -0.4,-27.5 -27.600003,-27.5 z"
   id="path4" />



<g
   id="g36940"
   transform="translate(9.5869627,2.138143)"><ellipse
     style="fill:#00ff00;stroke:none;stroke-width:2"
     id="path36812"
     cx="30.087276"
     cy="63.478939"
     rx="9.4490004"
     ry="9.4488192"
     transform="rotate(-30)" /><ellipse
     style="fill:#00ff00;stroke:none;stroke-width:2"
     id="ellipse36816"
     cx="-9.9127235"
     cy="63.478939"
     rx="9.4490004"
     ry="9.4488192"
     transform="rotate(-30)" /><path
     style="fill:none;stroke:#00ff00;stroke-width:2"
     d="M 15.398215,55.9391 C 12.103458,50.219488 19.937536,39.405587 31.269091,32.883101 42.600636,26.3606 54.553955,25.21064 58.348548,31.517196"
     id="path36881"
     sodipodi:nodetypes="czc" /></g><rect
   style="fill:none;stroke:#00ff00;stroke-width:2;stroke-linecap:round"
   id="rect37138"
   width="96"
   height="96"
   x="2"
   y="2" /><path
   id="rect37158"
   style="fill:#00ff00;stroke:#00ff00;stroke-width:2;stroke-linecap:round"
   d="M 2,2 H 98 L 11.609349,12.566587 2,98 Z"
   sodipodi:nodetypes="ccccc" /></svg>
