<?xml version="1.0" encoding="UTF-8" standalone="no"?>
<!-- Generator: Adobe Illustrator 15.0.2, SVG Export Plug-In . SVG Version: 6.00 Build 0)  -->

<svg
   version="1.1"
   id="Calque_1"
   x="0px"
   y="0px"
   width="100.06046"
   height="100"
   viewBox="0 0 100.06046 100"
   enable-background="new 0 0 128 128"
   xml:space="preserve"
   sodipodi:docname="AP_0008.svg"
   inkscape:version="1.2.2 (732a01da63, 2022-12-09)"
   xmlns:inkscape="http://www.inkscape.org/namespaces/inkscape"
   xmlns:sodipodi="http://sodipodi.sourceforge.net/DTD/sodipodi-0.dtd"
   xmlns="http://www.w3.org/2000/svg"
   xmlns:svg="http://www.w3.org/2000/svg"><defs
   id="defs15" /><sodipodi:namedview
   id="namedview13"
   pagecolor="#ffffff"
   bordercolor="#000000"
   borderopacity="0.25"
   inkscape:showpageshadow="2"
   inkscape:pageopacity="0.0"
   inkscape:pagecheckerboard="0"
   inkscape:deskcolor="#d1d1d1"
   showgrid="false"
   inkscape:zoom="5.6568542"
   inkscape:cx="37.918601"
   inkscape:cy="58.33631"
   inkscape:window-width="1920"
   inkscape:window-height="1017"
   inkscape:window-x="1912"
   inkscape:window-y="-8"
   inkscape:window-maximized="1"
   inkscape:current-layer="Calque_1" />

     <path
   display="none"
   fill="#ffffff"
   stroke="#12809c"
   stroke-width="3.685"
   stroke-miterlimit="10"
   d="m 19.401227,-21.657003 c -1.1,0.1 -27.6,0.4 -27.6,27.6 v 61.1 c 0,1.1 0.3,27.6 27.6,27.6 h 61.1 c 1.1,0 27.600003,-0.3 27.600003,-27.601 v -61.099 c -0.1,-1.2 -0.4,-27.5 -27.600003,-27.5 z"
   id="path4" />



<g
   id="g14658"
   transform="matrix(0.85374469,0,0,0.85374469,17.304734,12.666535)"
   style="stroke:none"><path
     style="fill:#00bfff;fill-opacity:1;stroke:none;stroke-width:0.499769;stroke-opacity:1"
     d="M 88.455922,32.681564 C 80.783069,28.073716 75.921754,20.627937 75.143278,12.29139 74.786123,8.466743 75.349933,3.5781038 76.147999,3.5797136 c 0.323811,6.497e-4 1.239673,1.2469243 2.03525,2.7694924 0.795578,1.522568 2.5139,4.178298 3.818488,5.901623 2.342903,3.094903 8.721738,9.319391 9.55048,9.319391 0.235122,0 0.427493,2.811202 0.427493,6.247116 0,4.669058 -0.157807,6.244963 -0.624712,6.238594 -0.343591,-0.0047 -1.648174,-0.623152 -2.899076,-1.374366 z m 2.02448,-5.119358 V 23.059038 L 85.811947,18.441417 C 83.244303,15.901725 80.151981,12.289518 78.94012,10.414289 L 76.736747,7.004783 76.584353,9.57814 c -0.436274,7.367071 3.82154,15.753387 10.397664,20.479529 1.511802,1.086505 2.917403,1.982718 3.123558,1.991584 0.206155,0.0089 0.374827,-2.010304 0.374827,-4.487047 z"
     id="path14594-5" /><path
     style="fill:#00bfff;fill-opacity:1;stroke:none;stroke-width:0.499769;stroke-opacity:1"
     d="M 80.369645,41.024037 C 75.035068,40.233847 69.595594,36.836935 66.552709,32.39546 65.769221,31.251857 64.403026,28.658951 63.516726,26.633447 61.36298,21.711412 57.642428,15.523588 54.536052,11.69726 53.140216,9.977919 51.998168,8.316457 51.998168,8.005124 c 0,-1.096192 5.590674,0.0029 9.338029,1.835782 3.516297,1.719879 6.703176,4.627833 7.990421,7.291081 0.316274,0.654353 1.481042,3.10135 2.58837,5.437771 3.244353,6.845459 8.378482,12.148538 14.664075,15.146628 4.797076,2.288102 4.569391,2.675399 -2.095892,3.565119 -0.687183,0.09173 -2.538268,-0.02413 -4.113526,-0.257468 z m 5.323397,-1.266217 c 0.569537,-0.218551 -0.05327,-0.814882 -2.21832,-2.124019 C 77.764403,34.180953 71.961927,27.465331 69.962505,21.995136 67.426651,15.057348 62.647207,10.706424 56.037204,9.318376 l -1.708307,-0.358732 1.111717,1.432538 c 3.049212,3.929153 6.449498,9.567758 9.333756,15.477936 3.425923,7.020098 5.530397,9.545206 9.788676,11.745185 3.607499,1.863766 9.100753,2.921213 11.129996,2.142517 z"
     id="path14592-0" /><path
     style="fill:#00bfff;fill-opacity:1;stroke:none;stroke-width:0.499769;stroke-opacity:1"
     d="M 87.731671,62.615356 C 80.425454,60.509529 73.998976,56.505207 68.153095,50.415999 63.667416,45.74361 60.558152,40.817796 58.50442,35.130205 c -1.891507,-5.238314 -2.285325,-7.562754 -1.281319,-7.562754 0.424764,0 0.772299,0.206235 0.772299,0.4583 0,0.775716 7.511402,8.491452 10.458721,10.74323 5.91445,4.518692 13.085294,7.976121 19.969601,9.628353 l 3.555988,0.853441 v 7.15003 c 0,5.40584 -0.152395,7.141348 -0.624712,7.114431 -0.343591,-0.01959 -1.974088,-0.424529 -3.623327,-0.89988 z m 2.648143,-9.097684 -0.149296,-3.075571 -4.189276,-1.207498 C 77.284829,46.710698 69.983145,42.451265 63.049861,35.822609 c -4.61249,-4.409833 -4.749192,-4.2518 -1.804122,2.085612 4.195453,9.028068 11.292547,16.32642 20.085692,20.655271 1.870382,0.920785 4.637839,2.057955 6.149891,2.527043 l 2.749196,0.852887 0.149296,-2.67509 c 0.08212,-1.471301 0.08212,-4.059101 0,-5.75066 z"
     id="path14590-4" /><path
     style="fill:#00bfff;fill-opacity:1;stroke:none;stroke-width:0.499769;stroke-opacity:1"
     d="m 75.812419,70.523141 c -4.373496,-0.733842 -7.681649,-2.797524 -12.797592,-7.983335 -4.934706,-5.0021 -8.843702,-7.456167 -13.140678,-8.249716 -5.096882,-0.941271 1.246015,-3.489699 7.790448,-3.13002 5.098636,0.280221 8.373949,1.757479 12.57515,5.671746 1.649238,1.536601 4.500062,3.789596 6.335165,5.006654 3.27044,2.168989 10.050575,5.210754 11.614843,5.210754 1.472735,0 0.802574,1.258649 -1.111737,2.087991 -1.806656,0.782699 -7.167846,1.977258 -8.309039,1.851381 -0.29311,-0.03234 -1.62356,-0.241784 -2.95656,-0.465455 z m 7.146846,-1.51625 c 1.387894,-0.297653 2.523444,-0.692366 2.523444,-0.877145 0,-0.184775 -1.347582,-0.858494 -2.994627,-1.497149 -3.727349,-1.445313 -9.382878,-5.170048 -12.997989,-8.560483 -2.950463,-2.767098 -6.18478,-4.662862 -8.995847,-5.272831 -2.126108,-0.461342 -7.28772,-0.431416 -8.061388,0.04673 -0.314905,0.19462 1.031698,1.084129 3.071722,2.029048 2.957224,1.369762 4.529738,2.591818 8.459709,6.574345 4.848552,4.913391 6.860023,6.265907 11.023266,7.412053 2.860949,0.787621 4.811329,0.8232 7.97171,0.145423 z"
     id="path14588-2" /><path
     style="fill:#00bfff;fill-opacity:1;stroke:none;stroke-width:0.499769;stroke-opacity:1"
     d="M 82.174872,86.040687 C 72.990967,84.694998 64.631901,79.056256 59.869534,70.994258 c -2.63137,-4.454523 -2.407253,-5.604218 0.665883,-3.415948 2.485697,1.769973 9.532514,4.847102 13.702484,5.983458 2.80416,0.764162 6.050332,1.167531 10.869982,1.350711 l 6.871827,0.26118 v 5.363788 5.363784 l -2.623789,0.315154 c -2.989774,0.359115 -3.639629,0.343212 -7.181049,-0.175698 z m 7.515,-1.303124 c 0.626831,-0.240539 0.79053,-1.105989 0.79053,-4.179435 v -3.876081 l -5.872289,-0.258376 c -7.99211,-0.351642 -13.595363,-1.818395 -20.800692,-5.444956 -1.613665,-0.81219 -3.008076,-1.402567 -3.098689,-1.311954 -0.441306,0.441311 5.075502,6.982032 7.404686,8.778982 5.042527,3.890284 12.186084,6.462886 18.203012,6.555443 1.420604,0.02184 2.938653,-0.09678 3.373442,-0.263623 z"
     id="path14586-8" /></g><rect
   style="fill:none;stroke:#00bfff;stroke-width:1.94197;stroke-dasharray:none;stroke-opacity:1"
   id="rect358"
   width="98.058029"
   height="98.058029"
   x="0.970985"
   y="0.970985" /><text
   xml:space="preserve"
   style="font-size:34.3731px;line-height:0.4;font-family:arial;-inkscape-font-specification:arial;fill:#00bfff;fill-opacity:1;stroke:none;stroke-width:2.14832;stroke-dasharray:none;stroke-opacity:1"
   x="2.3280361"
   y="25.75206"
   id="text1998"><tspan
     sodipodi:role="line"
     id="tspan1996"
     x="2.3280361"
     y="25.75206"
     style="stroke-width:2.14832">aep</tspan></text></svg>
