  0
SECTION
  2
HEADER
  9
$ACADVER
  1
AC1009
  9
$INSBASE
 10
0.0
 20
0.0
 30
0.0
  9
$EXTMIN
 10
0.0
 20
-0.8871589740402797
 30
0.0
  9
$EXTMAX
 10
2.4155786859220929
 20
1.0313949140911769
 30
0.0
  9
$LIMMIN
 10
0.0
 20
0.0
  9
$LIMMAX
 10
420.0
 20
297.0
  9
$ORTHOMODE
 70
     0
  9
$REGENMODE
 70
     1
  9
$FILLMODE
 70
     1
  9
$QTEXTMODE
 70
     0
  9
$MIRRTEXT
 70
     0
  9
$DRAGMODE
 70
     2
  9
$LTSCALE
 40
1.0
  9
$OSMODE
 70
   823
  9
$ATTMODE
 70
     1
  9
$TEXTSIZE
 40
2.5
  9
$TRACEWID
 40
1.0
  9
$TEXTSTYLE
  7
STANDARD
  9
$CLAYER
  8
EAUPO_SCS
  9
$CELTYPE
  6
SOCLE_CONTINU
  9
$CECOLOR
 62
   256
  9
$DIMSCALE
 40
1.0
  9
$DIMASZ
 40
0.15
  9
$DIMEXO
 40
0.2
  9
$DIMDLI
 40
0.2
  9
$DIMRND
 40
0.0
  9
$DIMDLE
 40
0.0
  9
$DIMEXE
 40
0.1
  9
$DIMTP
 40
0.0
  9
$DIMTM
 40
0.0
  9
$DIMTXT
 40
0.2
  9
$DIMCEN
 40
0.2
  9
$DIMTSZ
 40
0.0
  9
$DIMTOL
 70
     0
  9
$DIMLIM
 70
     0
  9
$DIMTIH
 70
     0
  9
$DIMTOH
 70
     0
  9
$DIMSE1
 70
     0
  9
$DIMSE2
 70
     0
  9
$DIMTAD
 70
     0
  9
$DIMZIN
 70
     1
  9
$DIMBLK
  1

  9
$DIMASO
 70
     1
  9
$DIMSHO
 70
     1
  9
$DIMPOST
  1

  9
$DIMAPOST
  1

  9
$DIMALT
 70
     0
  9
$DIMALTD
 70
     3
  9
$DIMALTF
 40
0.03937007874016
  9
$DIMLFAC
 40
1.0
  9
$DIMTOFL
 70
     1
  9
$DIMTVP
 40
0.0
  9
$DIMTIX
 70
     0
  9
$DIMSOXD
 70
     0
  9
$DIMSAH
 70
     0
  9
$DIMBLK1
  1

  9
$DIMBLK2
  1

  9
$DIMSTYLE
  2
BAT_103
  9
$DIMCLRD
 70
     0
  9
$DIMCLRE
 70
     0
  9
$DIMCLRT
 70
     0
  9
$DIMTFAC
 40
1.0
  9
$DIMGAP
 40
0.25
  9
$LUNITS
 70
     2
  9
$LUPREC
 70
     4
  9
$SKETCHINC
 40
1.0
  9
$FILLETRAD
 40
0.5
  9
$AUNITS
 70
     2
  9
$AUPREC
 70
     4
  9
$MENU
  1
.
  9
$ELEVATION
 40
0.0
  9
$PELEVATION
 40
0.0
  9
$THICKNESS
 40
0.0
  9
$LIMCHECK
 70
     0
  9
$BLIPMODE
 70
     0
  9
$CHAMFERA
 40
0.0
  9
$CHAMFERB
 40
0.0
  9
$SKPOLY
 70
     0
  9
$TDCREATE
 40
2458236.5934631019
  9
$TDUPDATE
 40
2459006.4121159608
  9
$TDINDWG
 40
19.148275786999999
  9
$TDUSRTIMER
 40
19.148274213000001
  9
$USRTIMER
 70
     1
  9
$ANGBASE
 50
90.0
  9
$ANGDIR
 70
     1
  9
$PDMODE
 70
     3
  9
$PDSIZE
 40
0.1
  9
$PLINEWID
 40
0.0
  9
$COORDS
 70
     1
  9
$SPLFRAME
 70
     0
  9
$SPLINETYPE
 70
     6
  9
$SPLINESEGS
 70
     8
  9
$ATTDIA
 70
     1
  9
$ATTREQ
 70
     1
  9
$HANDLING
 70
     1
  9
$HANDSEED
  5
12D
  9
$SURFTAB1
 70
     6
  9
$SURFTAB2
 70
     6
  9
$SURFTYPE
 70
     6
  9
$SURFU
 70
     6
  9
$SURFV
 70
     6
  9
$UCSNAME
  2

  9
$UCSORG
 10
0.0
 20
0.0
 30
0.0
  9
$UCSXDIR
 10
1.0
 20
0.0
 30
0.0
  9
$UCSYDIR
 10
0.0
 20
1.0
 30
0.0
  9
$PUCSNAME
  2

  9
$PUCSORG
 10
0.0
 20
0.0
 30
0.0
  9
$PUCSXDIR
 10
1.0
 20
0.0
 30
0.0
  9
$PUCSYDIR
 10
0.0
 20
1.0
 30
0.0
  9
$USERI1
 70
   200
  9
$USERI2
 70
     0
  9
$USERI3
 70
     0
  9
$USERI4
 70
     0
  9
$USERI5
 70
     0
  9
$USERR1
 40
1.5
  9
$USERR2
 40
4.5
  9
$USERR3
 40
1.0
  9
$USERR4
 40
0.0
  9
$USERR5
 40
0.0
  9
$WORLDVIEW
 70
     1
  9
$SHADEDGE
 70
     3
  9
$SHADEDIF
 70
    70
  9
$TILEMODE
 70
     1
  9
$MAXACTVP
 70
    48
  9
$PLIMCHECK
 70
     0
  9
$PEXTMIN
 10
0.2515265480615199
 20
0.5668729629618384
 30
0.0
  9
$PEXTMAX
 10
286.16120627647928
 20
409.18842743752361
 30
0.0
  9
$PLIMMIN
 10
-3.1749999523162842
 20
-3.1749999523162842
  9
$PLIMMAX
 10
293.8356506824494
 20
416.94099736213678
  9
$UNITMODE
 70
     0
  9
$VISRETAIN
 70
     1
  9
$PLINEGEN
 70
     1
  9
$PSLTSCALE
 70
     0
  0
ENDSEC
  0
SECTION
  2
TABLES
  0
TABLE
  2
VPORT
 70
     1
  0
VPORT
  2
*ACTIVE
 70
     0
 10
0.0
 20
0.0
 11
1.0
 21
1.0
 12
-3226.591527063289
 22
-2109.472042201548
 13
0.0
 23
0.0
 14
10.0
 24
10.0
 15
10.0
 25
10.0
 16
0.0
 26
0.0
 36
1.0
 17
3227.79931640625
 27
2109.5441601715738
 37
0.0
 40
1.932643635168005
 41
3.6985294117647061
 42
50.0
 43
0.0
 44
0.0
 50
0.0
 51
0.0
 71
     0
 72
  1000
 73
     1
 74
     3
 75
     0
 76
     0
 77
     0
 78
     1
  0
ENDTAB
  0
TABLE
  2
LTYPE
 70
     2
  0
LTYPE
  2
CONTINUOUS
 70
     0
  3
Solid line
 72
    65
 73
     0
 40
0.0
  0
LTYPE
  2
SOCLE_CONTINU
 70
     0
  3
Socle_Continu ____________________________
 72
    65
 73
     2
 40
2.5
 49
2.5
 49
0.0
  0
ENDTAB
  0
TABLE
  2
LAYER
 70
     2
  0
LAYER
  2
0
 70
     4
 62
     7
  6
SOCLE_CONTINU
  0
LAYER
  2
EAUPO_SCS
 70
     0
 62
   140
  6
SOCLE_CONTINU
  0
ENDTAB
  0
TABLE
  2
STYLE
 70
     1
  0
STYLE
  2
STANDARD
 70
     0
 40
0.0
 41
1.0
 50
0.0
 71
     0
 42
2.5
  3
txt
  4

  0
ENDTAB
  0
TABLE
  2
VIEW
 70
     0
  0
ENDTAB
  0
TABLE
  2
UCS
 70
     0
  0
ENDTAB
  0
TABLE
  2
APPID
 70
    14
  0
APPID
  2
ACAD
 70
     0
  0
APPID
  2
ACAD_PSEXT
 70
     0
  0
APPID
  2
ACAD_DSTYLE_DIMJAG
 70
     0
  0
APPID
  2
ACAD_DSTYLE_DIMTALN
 70
     0
  0
APPID
  2
ADE
 70
     0
  0
APPID
  2
ADE_PROJECTION
 70
     0
  0
APPID
  2
ACDBBLOCKREPETAG
 70
     0
  0
APPID
  2
COVADIS_ECHELLE
 70
     0
  0
APPID
  2
COVADIS_VARIABLES_1
 70
     0
  0
APPID
  2
ACAD_DSTYLE_DIMBREAK
 70
     0
  0
APPID
  2
ACAD_NAV_VCDISPLAY
 70
     0
  0
APPID
  2
PLOTTRANSPARENCY
 70
     0
  0
APPID
  2
AcDbAttr
 70
     0
  0
APPID
  2
ACAD_MLEADERVER
 70
     0
  0
ENDTAB
  0
TABLE
  2
DIMSTYLE
 70
     1
  0
DIMSTYLE
  2
BAT_103
 70
     0
  3

  4

  5

  6

  7

 40
1.0
 41
0.15
 42
0.2
 43
0.2
 44
0.1
 45
0.0
 46
0.0
 47
0.0
 48
0.0
140
0.2
141
0.2
142
0.0
143
0.03937007874016
144
1.0
145
0.0
146
1.0
147
0.25
 71
     0
 72
     0
 73
     0
 74
     0
 75
     0
 76
     0
 77
     0
 78
     1
170
     0
171
     3
172
     1
173
     0
174
     0
175
     0
176
     0
177
     0
178
     0
  0
ENDTAB
  0
ENDSEC
  0
SECTION
  2
BLOCKS
  0
BLOCK
  8
0
  2
$MODEL_SPACE
 70
     2
 10
0.0
 20
0.0
 30
0.0
  3
$MODEL_SPACE
  1

  0
ENDBLK
  5
1B
  8
0
  0
BLOCK
 67
     1
  8
0
  2
$PAPER_SPACE
 70
     0
 10
0.0
 20
0.0
 30
0.0
  3
$PAPER_SPACE
  1

  0
ENDBLK
  5
24
 67
     1
  8
0
  0
BLOCK
  8
0
  2
*U0
 70
     1
 10
0.0
 20
0.0
 30
0.0
  3
*U0
  1

  0
SOLID
  5
D4
  8
EAUPO_SCS
  6
CONTINUOUS
 10
0.0
 20
0.1999636375858245
 30
0.0
 11
-0.0563954425601878
 21
0.1999636375858245
 31
0.0
 12
0.0
 22
-0.0001971609690372
 32
0.0
 13
0.0
 23
-0.0001971609690372
 33
0.0
210
0.0
220
0.0
230
-1.0
  0
SOLID
  5
D5
  8
EAUPO_SCS
  6
CONTINUOUS
 10
0.0
 20
0.2498028390309628
 30
0.0
 11
-0.0563954425601878
 21
0.1999636375858245
 31
0.0
 12
0.0
 22
0.1999636375858245
 32
0.0
 13
0.0
 23
0.1999636375858245
 33
0.0
210
0.0
220
0.0
230
-1.0
  0
SOLID
  5
D6
  8
EAUPO_SCS
  6
CONTINUOUS
 10
0.0
 20
0.2498028390309628
 30
0.0
 11
-0.8699999999998908
 21
0.2498028390309628
 31
0.0
 12
-0.0563954425601878
 22
0.1999636375858245
 32
0.0
 13
-0.0563954425601878
 23
0.1999636375858245
 33
0.0
210
0.0
220
0.0
230
-1.0
  0
LINE
  5
D7
  8
EAUPO_SCS
  6
CONTINUOUS
 10
0.0563954425601878
 20
0.1999636375858245
 30
0.0
 11
0.0
 21
-0.0001971609690372
 31
0.0
  0
LINE
  5
D8
  8
EAUPO_SCS
  6
CONTINUOUS
 10
0.0
 20
-0.0001971609690372
 30
0.0
 11
0.0
 21
0.1999636375858245
 31
0.0
  0
LINE
  5
D9
  8
EAUPO_SCS
  6
CONTINUOUS
 10
0.0
 20
0.1999636375858245
 30
0.0
 11
0.0
 21
0.2498028390309628
 31
0.0
  0
LINE
  5
DA
  8
EAUPO_SCS
  6
CONTINUOUS
 10
0.8699999999998908
 20
0.2498028390309628
 30
0.0
 11
0.0563954425601878
 21
0.1999636375858245
 31
0.0
  0
ENDBLK
  5
DC
  8
0
  0
ENDSEC
  0
SECTION
  2
ENTITIES
  0
POLYLINE
  5
6C
  8
EAUPO_SCS
  6
SOCLE_CONTINU
 66
     1
 10
0.0
 20
0.0
 30
0.0
 70
   129
  0
VERTEX
  5
CE
  8
EAUPO_SCS
  6
SOCLE_CONTINU
 10
0.0
 20
-0.0001971609690372
 30
0.0
  0
VERTEX
  5
CF
  8
EAUPO_SCS
  6
SOCLE_CONTINU
 10
0.8699999999998908
 20
-0.0001971609690372
 30
0.0
  0
VERTEX
  5
D0
  8
EAUPO_SCS
  6
SOCLE_CONTINU
 10
0.8699999999998908
 20
0.2498028390309628
 30
0.0
  0
VERTEX
  5
D1
  8
EAUPO_SCS
  6
SOCLE_CONTINU
 10
0.0
 20
0.2498028390309628
 30
0.0
  0
SEQEND
  5
D2
  8
EAUPO_SCS
  6
SOCLE_CONTINU
  0
INSERT
  5
6D
  8
EAUPO_SCS
  6
CONTINUOUS
  2
*U0
 10
0.0
 20
0.0
 30
0.0
1001
ACAD
1002
{
1000
R14_HATCH_DATA
1000
6D
1011
1.0
1021
0.0
1031
0.0
1021
0.0
1031
0.0
1011
0.0
1021
0.0
1031
0.0
1021
1.0
1031
0.0
1011
0.0
1021
0.0
1031
0.0
1021
0.0
1031
1.0
1040
0.0
1010
0.0
1020
0.0
1030
1.0
1000
SOLID
1070
     1
1070
     0
1071
        1
1071
        1
1071
        4
1070
     1
1040
0.0
1040
-0.0001971609690372
1040
0.0563954425601878
1040
0.1999636375858245
1070
     1
1040
0.0563954425601878
1040
0.1999636375858245
1040
0.8699999999998908
1040
0.2498028390309628
1070
     1
1040
0.8699999999998908
1040
0.2498028390309628
1040
0.0
1040
0.2498028390309628
1070
     1
1040
0.0
1040
0.2498028390309628
1040
0.0
1040
-0.0001971609690372
1071
        0
1070
     0
1070
     1
1071
        1
1040
-3087.253378456543
1040
-2181.3836758003731
1040
0.0
1002
}
  0
POLYLINE
  5
6E
  8
EAUPO_SCS
  6
SOCLE_CONTINU
 66
     1
 10
0.0
 20
0.0
 30
0.0
 70
   128
 40
0.0132010950357999
 41
0.0132010950357999
  0
VERTEX
  5
DD
  8
EAUPO_SCS
  6
SOCLE_CONTINU
 10
0.2667602203691786
 20
0.1942463506375134
 30
0.0
  0
VERTEX
  5
DE
  8
EAUPO_SCS
  6
SOCLE_CONTINU
 10
0.3013627282361995
 20
0.1940077126521373
 30
0.0
  0
SEQEND
  5
DF
  8
EAUPO_SCS
  6
SOCLE_CONTINU
  0
POLYLINE
  5
6F
  8
EAUPO_SCS
  6
SOCLE_CONTINU
 66
     1
 10
0.0
 20
0.0
 30
0.0
 70
   128
 40
0.0132010950357999
 41
0.0132010950357999
  0
VERTEX
  5
E0
  8
EAUPO_SCS
  6
SOCLE_CONTINU
 10
0.3013627282361995
 20
0.1942463506381955
 30
0.0
 42
-0.4082074376759091
  0
VERTEX
  5
E1
  8
EAUPO_SCS
  6
SOCLE_CONTINU
 10
0.3359652361036751
 20
0.1594052047848891
 30
0.0
  0
VERTEX
  5
E2
  8
EAUPO_SCS
  6
SOCLE_CONTINU
 10
0.3359652361036751
 20
0.07540463396208
 30
0.0
  0
VERTEX
  5
E3
  8
EAUPO_SCS
  6
SOCLE_CONTINU
 10
0.2865671731487964
 20
0.07540463396208
 30
0.0
 42
-1.002527445059614
  0
VERTEX
  5
E4
  8
EAUPO_SCS
  6
SOCLE_CONTINU
 10
0.2865671731487964
 20
0.1345868543144206
 30
0.0
  0
SEQEND
  5
E5
  8
EAUPO_SCS
  6
SOCLE_CONTINU
  0
POLYLINE
  5
70
  8
EAUPO_SCS
  6
SOCLE_CONTINU
 66
     1
 10
0.0
 20
0.0
 30
0.0
 70
   128
 40
0.0132010950357999
 41
0.0132010950357999
  0
VERTEX
  5
E6
  8
EAUPO_SCS
  6
SOCLE_CONTINU
 10
0.3359652361036751
 20
0.134825492300024
 30
0.0
  0
VERTEX
  5
E7
  8
EAUPO_SCS
  6
SOCLE_CONTINU
 10
0.2865671731487964
 20
0.134825492300024
 30
0.0
  0
SEQEND
  5
E8
  8
EAUPO_SCS
  6
SOCLE_CONTINU
  0
POLYLINE
  5
71
  8
EAUPO_SCS
  6
SOCLE_CONTINU
 66
     1
 10
0.0
 20
0.0
 30
0.0
 70
   128
 40
0.0132010950357999
 41
0.0132010950357999
  0
VERTEX
  5
E9
  8
EAUPO_SCS
  6
SOCLE_CONTINU
 10
0.4746139055587264
 20
0.07540463396208
 30
0.0
  0
VERTEX
  5
EA
  8
EAUPO_SCS
  6
SOCLE_CONTINU
 10
0.425215842603393
 20
0.0754046339616252
 30
0.0
 42
-0.4088640365350603
  0
VERTEX
  5
EB
  8
EAUPO_SCS
  6
SOCLE_CONTINU
 10
0.3953860944411644
 20
0.1049957441380229
 30
0.0
  0
VERTEX
  5
EC
  8
EAUPO_SCS
  6
SOCLE_CONTINU
 10
0.3953860944434382
 20
0.1546324450787324
 30
0.0
 42
-0.9995196660176334
  0
VERTEX
  5
ED
  8
EAUPO_SCS
  6
SOCLE_CONTINU
 10
0.4746139055587264
 20
0.1546324450787324
 30
0.0
  0
VERTEX
  5
EE
  8
EAUPO_SCS
  6
SOCLE_CONTINU
 10
0.4746139055587264
 20
0.134825492300024
 30
0.0
  0
VERTEX
  5
EF
  8
EAUPO_SCS
  6
SOCLE_CONTINU
 10
0.3953860944411644
 20
0.134825492300024
 30
0.0
  0
SEQEND
  5
F0
  8
EAUPO_SCS
  6
SOCLE_CONTINU
  0
POLYLINE
  5
72
  8
EAUPO_SCS
  6
SOCLE_CONTINU
 66
     1
 10
0.0
 20
0.0
 30
0.0
 70
   128
 40
0.0132010950357999
 41
0.0132010950357999
  0
VERTEX
  5
F1
  8
EAUPO_SCS
  6
SOCLE_CONTINU
 10
0.5340347638966705
 20
0.0159837756236812
 30
0.0
  0
VERTEX
  5
F2
  8
EAUPO_SCS
  6
SOCLE_CONTINU
 10
0.5340347638966705
 20
0.1942463506375134
 30
0.0
  0
VERTEX
  5
F3
  8
EAUPO_SCS
  6
SOCLE_CONTINU
 10
0.5784214291611534
 20
0.1942463506384229
 30
0.0
 42
-0.410968610225636
  0
VERTEX
  5
F4
  8
EAUPO_SCS
  6
SOCLE_CONTINU
 10
0.613262575013323
 20
0.1594052047848891
 30
0.0
  0
VERTEX
  5
F5
  8
EAUPO_SCS
  6
SOCLE_CONTINU
 10
0.613262575013323
 20
0.1100071418291009
 30
0.0
 42
-0.4063487994360182
  0
VERTEX
  5
F6
  8
EAUPO_SCS
  6
SOCLE_CONTINU
 10
0.5784214291611534
 20
0.07540463396208
 30
0.0
  0
VERTEX
  5
F7
  8
EAUPO_SCS
  6
SOCLE_CONTINU
 10
0.5340347638966705
 20
0.07540463396208
 30
0.0
  0
SEQEND
  5
F8
  8
EAUPO_SCS
  6
SOCLE_CONTINU
  0
ATTDEF
  5
73
  8
EAUPO_SCS
  6
SOCLE_CONTINU
 10
1.2510493544077681
 20
0.7784617626587079
 30
0.0
 40
0.2
  1
AP_0000
  3

  2
ID
 70
     9
1001
ACDBBLOCKREPETAG
1070
     1
1071
        4
1005
0
1001
AcDbAttr
1070
     0
1070
     1
  0
ATTDEF
  5
75
  8
EAUPO_SCS
  6
SOCLE_CONTINU
 10
1.2510493544077681
 20
0.4571793615671141
 30
0.0
 40
0.2
  1
Coffret
  3

  2
NATURE
 70
     9
1001
ACDBBLOCKREPETAG
1070
     1
1071
        5
1005
0
1001
AcDbAttr
1070
     0
1070
     1
  0
ATTDEF
  5
76
  8
EAUPO_SCS
  6
SOCLE_CONTINU
 10
1.2510493544077681
 20
0.135896960475975
 30
0.0
 40
0.2
  1
Eau potable
  3

  2
FAMILLE
 70
     9
1001
ACDBBLOCKREPETAG
1070
     1
1071
        6
1005
0
1001
AcDbAttr
1070
     0
1070
     1
  0
ATTDEF
  5
77
  8
EAUPO_SCS
  6
SOCLE_CONTINU
 10
1.2510493544077681
 20
-0.1853854406156188
 30
0.0
 40
0.2
  1
EAUPO_SCS
  3

  2
CALQUE
 70
     9
1001
ACDBBLOCKREPETAG
1070
     1
1071
        7
1005
0
1001
AcDbAttr
1070
     0
1070
     1
  0
ATTDEF
  5
78
  8
EAUPO_SCS
  6
SOCLE_CONTINU
 10
1.2510493544077681
 20
-0.5066678417072126
 30
0.0
 40
0.2
  1
AffleurantSymbole
  3

  2
PCRS
 70
     9
1001
ACDBBLOCKREPETAG
1070
     1
1071
        7
1005
0
1001
AcDbAttr
1070
     0
1070
     1
  0
ATTDEF
  5
79
  8
EAUPO_SCS
  6
SOCLE_CONTINU
 10
1.2510493544077681
 20
-0.8279502427988063
 30
0.0
 40
0.2
  1
NR
  3
Indiquez des caractéristiques/informations supplémentaires si disponibles
  2
TYPE
 70
     9
1001
ACDBBLOCKREPETAG
1070
     1
1071
        7
1005
0
1001
AcDbAttr
1070
     0
1070
     1
  0
ENDSEC
  0
EOF
