<?xml version="1.0" encoding="UTF-8" standalone="no"?>
<!-- Generator: Adobe Illustrator 15.0.2, SVG Export Plug-In . SVG Version: 6.00 Build 0)  -->

<svg
   version="1.1"
   id="Calque_1"
   x="0px"
   y="0px"
   width="100.06046"
   height="100"
   viewBox="0 0 100.06046 100"
   enable-background="new 0 0 128 128"
   xml:space="preserve"
   sodipodi:docname="CP_0165.svg"
   inkscape:version="1.2.2 (732a01da63, 2022-12-09)"
   xmlns:inkscape="http://www.inkscape.org/namespaces/inkscape"
   xmlns:sodipodi="http://sodipodi.sourceforge.net/DTD/sodipodi-0.dtd"
   xmlns="http://www.w3.org/2000/svg"
   xmlns:svg="http://www.w3.org/2000/svg"><defs
   id="defs15" /><sodipodi:namedview
   id="namedview13"
   pagecolor="#ffffff"
   bordercolor="#000000"
   borderopacity="0.25"
   inkscape:showpageshadow="2"
   inkscape:pageopacity="0.0"
   inkscape:pagecheckerboard="0"
   inkscape:deskcolor="#d1d1d1"
   showgrid="false"
   inkscape:zoom="4"
   inkscape:cx="79.375"
   inkscape:cy="71.5"
   inkscape:window-width="1920"
   inkscape:window-height="1017"
   inkscape:window-x="3832"
   inkscape:window-y="-8"
   inkscape:window-maximized="1"
   inkscape:current-layer="Calque_1" />

     <path
   display="none"
   fill="#ffffff"
   stroke="#12809c"
   stroke-width="3.685"
   stroke-miterlimit="10"
   d="m 19.401227,-21.657003 c -1.1,0.1 -27.6,0.4 -27.6,27.6 v 61.1 c 0,1.1 0.3,27.6 27.6,27.6 h 61.1 c 1.1,0 27.600003,-0.3 27.600003,-27.601 v -61.099 c -0.1,-1.2 -0.4,-27.5 -27.600003,-27.5 z"
   id="path4" />



<text
   xml:space="preserve"
   style="font-size:31.3124px;line-height:0.4;font-family:arial;-inkscape-font-specification:arial;fill:#7f3f00;fill-opacity:1;stroke:none;stroke-width:1.95703;stroke-dasharray:none;stroke-opacity:1"
   x="0.7053318"
   y="18.529648"
   id="text1998"><tspan
     sodipodi:role="line"
     id="tspan1996"
     x="0.7053318"
     y="18.529648"
     style="fill:#7f3f00;fill-opacity:1;stroke-width:1.95703">eu</tspan></text><rect
   style="fill:none;stroke:#7f3f00;stroke-width:0.990102;stroke-dasharray:none;stroke-opacity:1"
   id="rect5571"
   width="99.070358"
   height="99.009895"
   x="0.49505097"
   y="0.49505097" /><path
   style="fill:none;stroke:#7f3f00;stroke-width:1;stroke-dasharray:none;stroke-opacity:1"
   d="M 7.5,95.25 C 28.894903,87.013647 21.266763,72.093665 34.280543,60.875 47.294322,49.656335 59.915592,53.155151 70.90625,42.25 81.896908,31.344849 72.791803,16.945322 91.875,7.25"
   id="path9508"
   sodipodi:nodetypes="czzc" /><path
   style="fill:none;stroke:#7f3f00;stroke-width:1;stroke-dasharray:none;stroke-opacity:1"
   d="M 35.730181,95.986449 C 50.110133,90.450622 44.983104,80.422595 53.729931,72.8823 62.476757,65.342007 70.95977,67.693633 78.346816,60.364058 85.733864,53.034484 79.614135,43.356267 92.440342,36.839844"
   id="path9508-6"
   sodipodi:nodetypes="czzc" /><path
   style="fill:none;stroke:#7f3f00;stroke-width:1;stroke-dasharray:none;stroke-opacity:1"
   d="m 62.473964,96.205624 c 7.625526,-2.93559 4.906721,-8.253341 9.545064,-12.251874 4.638342,-3.998532 9.136788,-2.751491 13.054055,-6.638282 3.917268,-3.88679 0.672045,-9.019039 7.473637,-12.474624"
   id="path9508-6-3"
   sodipodi:nodetypes="czzc" /></svg>
