<?xml version="1.0" encoding="UTF-8" standalone="no"?>
<!-- Generator: Adobe Illustrator 15.0.2, SVG Export Plug-In . SVG Version: 6.00 Build 0)  -->

<svg
   version="1.1"
   id="Calque_1"
   x="0px"
   y="0px"
   width="100.06046"
   height="100"
   viewBox="0 0 100.06046 100"
   enable-background="new 0 0 128 128"
   xml:space="preserve"
   sodipodi:docname="BP_0202.svg"
   inkscape:version="1.2.2 (732a01da63, 2022-12-09)"
   xmlns:inkscape="http://www.inkscape.org/namespaces/inkscape"
   xmlns:sodipodi="http://sodipodi.sourceforge.net/DTD/sodipodi-0.dtd"
   xmlns="http://www.w3.org/2000/svg"
   xmlns:svg="http://www.w3.org/2000/svg"><defs
   id="defs15" /><sodipodi:namedview
   id="namedview13"
   pagecolor="#ffffff"
   bordercolor="#000000"
   borderopacity="0.25"
   inkscape:showpageshadow="2"
   inkscape:pageopacity="0.0"
   inkscape:pagecheckerboard="0"
   inkscape:deskcolor="#d1d1d1"
   showgrid="false"
   inkscape:zoom="4"
   inkscape:cx="79.375"
   inkscape:cy="88"
   inkscape:window-width="1920"
   inkscape:window-height="1017"
   inkscape:window-x="3832"
   inkscape:window-y="-8"
   inkscape:window-maximized="1"
   inkscape:current-layer="Calque_1" />

     <path
   display="none"
   fill="#ffffff"
   stroke="#12809c"
   stroke-width="3.685"
   stroke-miterlimit="10"
   d="m 19.401227,-21.657003 c -1.1,0.1 -27.6,0.4 -27.6,27.6 v 61.1 c 0,1.1 0.3,27.6 27.6,27.6 h 61.1 c 1.1,0 27.600003,-0.3 27.600003,-27.601 v -61.099 c -0.1,-1.2 -0.4,-27.5 -27.600003,-27.5 z"
   id="path4" />



<text
   xml:space="preserve"
   style="font-size:31.3124px;line-height:0.4;font-family:arial;-inkscape-font-specification:arial;fill:#7F7F00;fill-opacity:1;stroke:none;stroke-width:1.95703;stroke-dasharray:none;stroke-opacity:1"
   x="8.9553318"
   y="25.029648"
   id="text1998"><tspan
     sodipodi:role="line"
     id="tspan1996"
     x="8.9553318"
     y="25.029648"
     style="fill:#7F7F00;fill-opacity:1;stroke-width:1.95703">u</tspan></text><path
   id="rect5571"
   style="fill:none;stroke:#7F7F00;stroke-width:1;stroke-dasharray:none;stroke-opacity:1"
   d="M 0.49813317,60.099878 V 40.149503 m 0,-9.975188 0.03125,-29.66117715 L 29.81232,0.49751285 M 69.947339,0.51313785 99.54036,0.51359781 99.535,30.174315 m 0.02733,29.925563 V 40.149503 m -0.0208,30.175101 0.02355,29.177263 h -30.16212 m -9.701401,0 h -19.90031 m -9.942635,0 H 0.49813317 V 70.075064 M 59.701555,0.49813317 h -19.90031"
   sodipodi:nodetypes="cccccccccccccccccccc" /></svg>
